<svg xmlns="http://www.w3.org/2000/svg" width="15" height="14" viewBox="0 0 15 14"><g><g><path fill="#757575" d="M14.256 5.318L12.19 7.243c-.829.773-2.168.77-2.992-.008l1.158-1.085c.355.091.812-.051 1.09-.31l1.317-1.227a.949.949 0 0 0 .004-1.403l-1.12-1.057a1.109 1.109 0 0 0-1.497-.004L8.834 3.375c-.293.273-.44.669-.32 1.014L7.332 5.474a1.898 1.898 0 0 1 .008-2.805L9.41.742c.826-.772 2.166-.767 2.991.009l1.865 1.761a1.896 1.896 0 0 1-.01 2.806zM7.88 8.466c.838.79.834 2.07-.01 2.858l-1.994 1.86c-.845.786-2.21.781-3.048-.008l-1.9-1.794a1.935 1.935 0 0 1 .01-2.859l1.995-1.86c.843-.785 2.209-.781 3.048.01L4.795 7.794c-.376-.12-.807.022-1.106.3l-1.23 1.147a.968.968 0 0 0-.006 1.43l1.142 1.074c.42.396 1.101.398 1.523.006l1.23-1.147c.284-.266.442-.703.343-1.04zM5.4 8.078l3.408-3.237a.747.747 0 0 1 1.02.003c.282.27.28.706-.004.975L6.416 9.057a.748.748 0 0 1-1.021-.004.668.668 0 0 1 .004-.975z"/></g></g></svg>