<svg xmlns="http://www.w3.org/2000/svg" width="16" height="16" viewBox="0 0 16 16"><g><g><path fill="#737376" d="M15.63 15.46l-.166.168a.94.94 0 0 1-1.336 0l-3.986-4.015a6.316 6.316 0 0 1-3.764 1.238C2.856 12.851 0 9.975 0 6.425 0 2.877 2.856 0 6.378 0c3.523 0 6.379 2.877 6.379 6.425a6.43 6.43 0 0 1-1.131 3.654l4.005 4.034a.957.957 0 0 1 0 1.347zM6.379 2.142c-2.348 0-4.252 1.917-4.252 4.283 0 2.366 1.904 4.284 4.252 4.284 2.349 0 4.252-1.918 4.252-4.284 0-2.366-1.903-4.283-4.252-4.283z"/></g></g></svg>