<svg xmlns="http://www.w3.org/2000/svg" width="21" height="20" viewBox="0 0 21 20"><g><g><path fill="#676767" d="M20.5 9.217v1.565l-2.11.572a7.92 7.92 0 0 1-.381 1.417l1.543 1.55-.783 1.357-2.122-.562a8.064 8.064 0 0 1-1.033 1.027l.564 2.126-1.356.782-1.562-1.554a7.906 7.906 0 0 1-1.4.37L11.283 20H9.717l-.58-2.141a7.907 7.907 0 0 1-1.384-.375l-1.575 1.567-1.356-.782.572-2.158a8.034 8.034 0 0 1-1.001-1.006l-2.162.573-.783-1.356 1.58-1.588a7.938 7.938 0 0 1-.365-1.365L.5 10.782V9.217l2.163-.586a7.92 7.92 0 0 1 .365-1.365l-1.58-1.588.783-1.356 2.163.573a8.03 8.03 0 0 1 1-1.004l-.572-2.16L6.178.948l1.575 1.567c.444-.164.907-.29 1.384-.375L9.717 0h1.566l.577 2.132c.483.081.95.206 1.4.37L14.822.948l1.356.783-.563 2.123c.375.311.72.656 1.033 1.03l2.12-.562.784 1.356-1.543 1.55c.169.454.297.928.38 1.417zm-9.975-5.692a6.475 6.475 0 1 0 0 12.95 6.475 6.475 0 0 0 0-12.95zm4.301 10.07L11.05 9.901l1.426-5.159a5.608 5.608 0 0 1 2.35 8.851zm-9.833-2.687a5.606 5.606 0 0 1 6.508-6.428l-1.41 5.1zm9.118 3.4a5.608 5.608 0 0 1-8.866-2.422l5.045-1.314z"/></g></g></svg>