<svg xmlns="http://www.w3.org/2000/svg" width="12" height="12" viewBox="0 0 12 12"><g><g><path fill="#888" d="M.877 4.274a.256.256 0 0 1-.196-.045.271.271 0 0 1-.108-.175L.025.858A.27.27 0 0 1 .238.545L.928.42a.263.263 0 0 1 .304.219l.23 1.345c.259-.33.556-.63.884-.889A5.094 5.094 0 0 1 5.669.003a.26.26 0 0 1 .183.086.276.276 0 0 1 .07.194l-.026.72a.274.274 0 0 1-.083.19.257.257 0 0 1-.189.071 3.882 3.882 0 0 0-2.534.833c-.229.181-.435.383-.616.605l1.292-.235a.263.263 0 0 1 .304.219l.122.71a.27.27 0 0 1-.213.313zm11.102-1.518l-.214.687a.261.261 0 0 1-.33.175L10.172 3.2a5.463 5.463 0 0 1-.26 4.758.257.257 0 0 1-.358.1l-.607-.36a.277.277 0 0 1-.097-.37 4.168 4.168 0 0 0 .234-3.54l-.4 1.288a.268.268 0 0 1-.13.157.258.258 0 0 1-.2.017l-.667-.22a.272.272 0 0 1-.17-.34l.962-3.09a.261.261 0 0 1 .33-.175l3 .99c.066.022.121.07.153.134a.278.278 0 0 1 .017.207zM7.132 9.135c.106.1.114.272.016.382l-2.126 2.395A.259.259 0 0 1 4.84 12h-.012a.259.259 0 0 1-.177-.071l-.517-.487a.277.277 0 0 1-.016-.382l.895-1.008a5.033 5.033 0 0 1-1.223-.18 5.175 5.175 0 0 1-2.865-2.05.277.277 0 0 1 .061-.377l.57-.418a.257.257 0 0 1 .367.063 3.945 3.945 0 0 0 2.185 1.563c.277.076.56.122.84.135l-.968-.912a.276.276 0 0 1-.017-.382l.473-.533a.258.258 0 0 1 .37-.017z"/></g></g></svg>